<svg id="Layer_1" data-name="Layer 1" xmlns="http://www.w3.org/2000/svg" viewBox="0 0 637.26 465.1"><defs><style>.cls-1,.cls-3,.cls-4,.cls-5,.cls-6{fill-rule:evenodd;}.cls-2,.cls-3{fill:red;}.cls-4{fill:#fff;}.cls-5{fill:#58595b;}.cls-6{fill:#1d191a;}</style></defs><title>1</title><polygon class="cls-1" points="144.67 306.86 296.59 306.86 294.6 310.49 143.2 310.49 144.67 306.86 144.67 306.86"/><polygon class="cls-1" points="80.58 370.64 339.79 370.64 337.19 375.08 79.02 375.08 80.58 370.64 80.58 370.64"/><path class="cls-2" d="M37.38,247.69c.65.26,1.3.52,2.07.91l-5.57,32a19.73,19.73,0,0,1-3.24,1.17,11.48,11.48,0,0,1-3.76.52c-3.24,0-5.83-1.17-4.15-10.76l2.33-13C26.74,249.11,30,247,33.88,247a9.37,9.37,0,0,1,3.5.65ZM69.14,247c3.24,0,5.83,1.3,4.15,10.76l-2.33,13c-1.69,9.46-4.93,11.54-8.82,11.54a9.49,9.49,0,0,1-3.5-.52c-.65-.26-1.43-.52-2.07-.78l5.7-32.15a15.24,15.24,0,0,1,3.11-1.17,11.43,11.43,0,0,1,3.76-.65Zm26.19,13.09c3.5-20.1-6.22-33.32-21.78-33.32a20.24,20.24,0,0,0-7.78,1.56l4.48-25.76-22.76,0L43,228.76a26,26,0,0,0-10.76-1.94c-10.37,0-25.54,6.74-29,27.23L.69,268.17c-3.37,20,6,34.36,21.65,34.36A20.24,20.24,0,0,0,30.12,301l-4.8,27.23H48.14l4.8-27.62a24.17,24.17,0,0,0,10.24,1.95c12.71,0,26.19-8,29.69-28.26l2.46-14.13ZM136,247c5.06,0,6.87,3,5.32,12.06l-1.82,10.5C138,278.41,135,282.3,129.17,282.3c-5.06,0-7-3-5.45-11.93l1.81-10.5c1.56-8.69,4.54-12.84,10.5-12.84Zm28,12.19c3.5-20-8.69-32.41-25.15-32.41-20.35,0-32.41,12.19-35.78,31.63L101,270.24c-3.37,20,8.82,32.28,25.41,32.28,20.23,0,32.15-12.06,35.52-31.5l2.07-11.8ZM206.82,247c3.11,0,6.09,2.59,4.67,11.15l-2.2,12.58c-1.69,9.2-5.7,11.54-9.72,11.54a17,17,0,0,1-6.74-1.43L196.58,259c1.56-8.3,6.09-11.93,10.24-11.93ZM234,259c3.37-19.32-4.67-32.15-21.52-32.15a21.12,21.12,0,0,0-14.13,5.32l-.52-3.63H179.21l-17.5,99.7h22.69l4.8-27.23a29.43,29.43,0,0,0,8.43,1.56c18.8,0,30.6-10.24,34.23-31L234,259Zm71.31-30.47H282.67l-7.39,17.63c-1.56,3.63-3,5.19-4.54,5.7l-3,1L272,228.5H249.22l-12.45,72.34h22.69l4.41-26.19,1-.26,7.65,26.45h23.85L285,266.61c4.67-3.24,7.26-7.91,10.11-14.39l10.24-23.73Zm65,0H343.47c-17.37,0-26.32,11.67-31.63,25.93l-17.5,46.41h23.6l16.72-43.56c2.59-6.48,5.7-8.82,8.69-8.95H344l-9.33,52.51h22.82l12.84-72.34Zm69.62,0H417.11l-7.39,42.27c-1.56,8.56-5.19,11.54-9.2,11.54-3.24,0-5.83-2.07-4.41-10.76l7.52-43H380.81l-7.39,42.91c-3.5,19.58,4.41,31.11,21.26,31.11a19.68,19.68,0,0,0,12.06-3.89l-.13,2.2h20.61l12.71-72.34Zm38.5,19.19c.65.26,1.3.52,2.07.91l-5.57,32a19.72,19.72,0,0,1-3.24,1.17,11.48,11.48,0,0,1-3.76.52c-3.24,0-5.83-1.17-4.15-10.76l2.33-13C467.8,249.11,471,247,474.93,247a9.37,9.37,0,0,1,3.5.65Zm31.76-.65c3.24,0,5.83,1.3,4.15,10.76l-2.33,13c-1.69,9.46-4.93,11.54-8.82,11.54a9.49,9.49,0,0,1-3.5-.52c-.65-.26-1.43-.52-2.07-.78l5.7-32.15a15.24,15.24,0,0,1,3.11-1.17,11.43,11.43,0,0,1,3.76-.65Zm26.19,13.09c3.5-20.1-6.22-33.32-21.78-33.32a20.24,20.24,0,0,0-7.78,1.56L511,202.61l-22.43,0L484,228.76a26,26,0,0,0-10.76-1.94c-10.37,0-25.54,6.74-29,27.23l-2.46,14.13c-3.37,20,6,34.36,21.65,34.36a20.24,20.24,0,0,0,7.78-1.56l-4.8,27.23h22.82l4.8-27.62a24.17,24.17,0,0,0,10.24,1.95c12.71,0,26.19-8,29.69-28.26l2.46-14.13Zm100.22-2.72c3.5-19.84-7.39-30.6-20.87-30.6-8.82,0-14.13,2.72-18.93,7.26a15.31,15.31,0,0,0-13.48-7.26c-4.15,0-8.56,1.94-11.8,4.28V228.5H551.81L539.1,300.84h22.69l7.39-42.14c1.56-8.95,4.41-11.67,7.78-11.67,4.28,0,4.28,4.8,2.85,13.09l-7.13,40.71H595.5l6.87-39.93c1.82-10.5,4.93-13.87,8.3-13.87,2.59,0,4.67,1.56,3.11,10.89l-7.52,42.91h22.82l7.52-43.43Z"/><path d="M93.47,140.86h-15L64.79,167q-.46.81-.93,1.86c-.08-.54-.15-1-.23-1.47l-4.42-26.51H44.33L28.91,196H42.78L50,168.14c.15-.46.23-1,.39-1.55.08.54.16.93.23,1.39l3.25,19.14H67.74l9.84-18.76c.31-.46.54-1,.85-1.55l-.08.85L75.64,196h13.8l4-55.1Zm10.85,71.46H117.8l18.45-59.6H122.53l-9.3,31.23-.78-.08c-1.32,0-2.25-.54-2.17-4.5l1-26.66H97.81L96.88,180c-.31,8.53,2.87,15.5,12.63,15.89l-5.19,16.43Zm70.14-59.6h-16c-10.39,0-15.73,7-18.91,15.5L129,196h14.11l10-26c1.55-3.87,3.41-5.27,5.19-5.35h.39L153.14,196h13.64l7.67-43.25Zm20.62,25.42c2.09,0,2.48.93,2.48,2.09,0,2.4-1.32,4.26-4.34,4.26l-4,.08,1.16-6.35,4.73-.08ZM191.74,196c10.07,0,19.14-4.34,19.14-16.59,0-7.83-5.73-12.25-14.42-12.32h-4.19l2.56-14.34H181.2L173.68,196Zm79-26c2.09-11.86-4.42-18.29-12.48-18.29-5.27,0-8.45,1.63-11.32,4.34a9.15,9.15,0,0,0-8.06-4.34,12.82,12.82,0,0,0-7.05,2.56v-1.55H220L212.43,196H226l4.42-25.19c.93-5.35,2.64-7,4.65-7,2.56,0,2.56,2.87,1.71,7.83L232.51,196h13.64l4.11-23.87c1.08-6.28,2.94-8.29,5-8.29,1.55,0,2.79.93,1.86,6.51L252.58,196h13.64l4.5-26ZM315,152.71H301.41L297,178c-.93,5.11-3.1,6.9-5.5,6.9-1.94,0-3.49-1.24-2.63-6.43l4.49-25.73H279.71l-4.42,25.65C273.2,190.07,277.92,197,288,197a11.76,11.76,0,0,0,7.21-2.33l-.08,1.32h12.32L315,152.71Z"/><path class="cls-2" d="M363.5,347a16.69,16.69,0,0,0-5.37-1c-4.41,0-7.75,2.35-8.7,7.75l-.51,2.89c-1,5.56,2.35,7.91,6.48,7.91a19.5,19.5,0,0,0,5.53-1l-.48-4.76a17.73,17.73,0,0,1-4.35.76c-1.43,0-2.06-.38-1.65-2.76l.51-2.89c.44-2.41,1.3-3,2.83-3a13,13,0,0,1,4,.79L363.5,347Zm19.69-.6h-6.57c-4.26,0-6.45,2.86-7.75,6.35l-4.29,11.37h5.78l4.1-10.67c.64-1.59,1.4-2.16,2.13-2.19h.16l-2.29,12.86H380l3.14-17.72Zm12.38,4.54c1.24,0,1.68.73,1.3,3l-.44,2.57c-.38,2.16-1.11,3.11-2.54,3.11-1.24,0-1.71-.73-1.33-2.92l.44-2.57c.38-2.13,1.11-3.14,2.57-3.14Zm6.86,3c.86-4.89-2.13-7.94-6.16-7.94-5,0-7.94,3-8.77,7.75L387,356.6c-.83,4.89,2.16,7.91,6.22,7.91,5,0,7.88-3,8.7-7.72l.51-2.89ZM431,346.38h-5.65l-1.81,4.32c-.38.89-.73,1.3-1.14,1.4l-1,.29,1.08-6h-5.59l-1.08,6.07-1.27-.35c-.22-.1-.41-.35-.48-1.21l-.32-4.51h-5.37l.48,5.62a5.86,5.86,0,0,0,1.14,3.59l-5.81,8.51h6.45l4.13-6.48.13.06-1.11,6.42h5.59l1.08-6.38.38-.1,2,6.48h6l-2.86-8.26a8.34,8.34,0,0,0,2.6-3.65l2.54-5.81Zm19.75,0h-5.59l-1.08,6.13h-3.3l1.08-6.13h-5.59l-3.11,17.72h5.56l1.21-6.76h3.3L442,364.1h5.59l3.14-17.72Zm11.84,10.42c.86,0,1,.38,1,.86a1.61,1.61,0,0,1-1.78,1.75l-1.65,0,.48-2.6,1.94,0Zm-1.37,7.3c4.13,0,7.84-1.78,7.84-6.8,0-3.21-2.35-5-5.91-5h-1.71l1-5.88h-5.59l-3.08,17.72Zm15.91-17.72h-5.59l-3.11,17.72H474l3.11-17.72Zm20.54,0h-6.16l-2.6,3.65-1.33-3.65H481.7l3.24,8.57-6.86,9.15h6.26l3.08-4.19,1.52,4.19H495l-3.65-9.15,6.32-8.57ZM517,355.11a5.52,5.52,0,0,0,2.35-4.73c0-2.45-2.35-4.41-5.88-4.41a15.83,15.83,0,0,0-5.24,1l.38,4.73a15.18,15.18,0,0,1,4.35-.86c.48,0,.67,0,.67.16,0,.29-.16.48-.7.89l-4,2.89a5.45,5.45,0,0,0-2.67,4.89c0,2.67,1.91,4.86,6.1,4.86a18.85,18.85,0,0,0,6-1.17l-.32-4.76a14.19,14.19,0,0,1-4.8,1c-.51,0-1,.06-1-.35s.13-.57,1.27-1.43l3.46-2.67Zm15.84-4.19c.76,0,1.49.64,1.14,2.73l-.54,3.08c-.41,2.25-1.4,2.83-2.38,2.83a4.15,4.15,0,0,1-1.65-.35l.92-5.37c.38-2,1.49-2.92,2.51-2.92Zm6.67,2.92c.83-4.73-1.14-7.88-5.27-7.88a5.17,5.17,0,0,0-3.46,1.3l-.13-.89h-4.57l-4.29,24.42h5.56l1.18-6.67a7.19,7.19,0,0,0,2.06.38c4.61,0,7.49-2.51,8.38-7.59l.54-3.08Zm8.35,17h5.53L561,346.38h-5.62l-3.81,12.8-.32,0c-.54,0-.92-.22-.89-1.84l.41-10.92h-5.53l-.38,11.18c-.13,3.49,1.18,6.35,5.18,6.51l-2.13,6.73Zm26.83-16.1a5,5,0,0,0,2.29-4.22c0-2.35-1.62-4.51-5.69-4.51a20,20,0,0,0-6.41,1.33l.48,4.6a14.35,14.35,0,0,1,4.64-1.08c1,0,1.24.44,1.24.73,0,.57-.57,1.3-1.81,1.3h-2.64l-.41,4.38h3c1.14,0,1.24.41,1.24.76,0,1-.89,1.65-2.54,1.65a13.33,13.33,0,0,1-4.51-1l-1.43,4.64a18.25,18.25,0,0,0,6.45,1.21c4.51,0,7.62-2.48,7.62-6.48a4.44,4.44,0,0,0-1.49-3.33Zm15.52-3.78c1.24,0,1.68.73,1.3,3l-.44,2.57c-.38,2.16-1.11,3.11-2.54,3.11-1.24,0-1.71-.73-1.33-2.92l.44-2.57c.38-2.13,1.11-3.14,2.57-3.14Zm6.86,3C598,349,595,346,591,346c-5,0-7.94,3-8.77,7.75l-.51,2.89c-.83,4.89,2.16,7.91,6.22,7.91,5,0,7.88-3,8.7-7.72l.51-2.89Zm12.48,2.92c.92,0,1.24.54,1.24,1.11s-.54,1.46-1.91,1.46l-1.43,0,.48-2.6Zm.79-6.32c1.21,0,1.43.48,1.43.83,0,.73-.54,1.33-2.16,1.3h-1l.38-2.1,1.3,0Zm4.73,4.35a4.38,4.38,0,0,0,2.19-4.13c0-2.89-2.29-4.35-5.68-4.35h-7.4l-1.08,6.26-2,11.46h7.21c3.84,0,8.29-1.14,8.29-5.88a4.25,4.25,0,0,0-1.49-3.37Z"/><path class="cls-1" d="M456.49,374.49c-41.47,55-107.2,90.61-181.2,90.61s-139.73-35.57-181.2-90.61h11.28a217.59,217.59,0,0,0,339.85,0Z"/><path class="cls-3" d="M275.29,8.56A225.18,225.18,0,0,1,381.82,35.18l-8.35,5.7a216.41,216.41,0,0,0-98.18-23.4c-84.1,0-157.07,47.8-193.52,117.82h-10C109,60.18,186.13,8.56,275.29,8.56Z"/><polygon class="cls-1" points="22.05 132.07 282.06 132.07 280.24 135.3 20.49 135.3 22.05 132.07 22.05 132.07"/><path d="M462.66,324.35a5.92,5.92,0,0,0-6-7.36c-4.41,0-7.48,2.7-8.25,7.17l-.58,3.37c-.83,4.84,2,7.36,5.09,7.36a5.81,5.81,0,0,0,3.13-.95l-.06.55h4.87l1.78-10.15ZM456,321.77c.83,0,1.59.58,1.26,2.54l-.8,4.35a3.17,3.17,0,0,1-2.24,1.44c-.77,0-1.41-.31-1-2.54l.52-3.07c.34-2,1.38-2.73,2.3-2.73Zm-7.69-4.38H443l-1.75,4.17c-.37.86-.7,1.23-1.07,1.35l-.71.24,1-5.76h-5.39l-2.94,17.1h5.36l1-6.19.25-.06,1.81,6.25h5.64l-2.7-8.09a7.4,7.4,0,0,0,2.39-3.4l2.42-5.61Zm-17,6.84c.83-4.69-1.75-7.23-4.94-7.23a5.92,5.92,0,0,0-4.47,1.72,3.62,3.62,0,0,0-3.19-1.72,5.07,5.07,0,0,0-2.79,1v-.61h-4.66l-3,17.1h5.36l1.75-10c.37-2.12,1-2.76,1.84-2.76,1,0,1,1.13.67,3.1l-1.69,9.62h5.39l1.62-9.44c.43-2.48,1.17-3.28,2-3.28.61,0,1.1.37.74,2.57l-1.78,10.15h5.39l1.78-10.27Zm-23.66.43c.83-4.72-2.05-7.66-5.95-7.66-4.81,0-7.66,2.88-8.46,7.48l-.49,2.79c-.8,4.72,2.08,7.63,6,7.63,4.78,0,7.6-2.85,8.4-7.45l.49-2.79Zm-6.62-2.88c1.2,0,1.62.7,1.26,2.85l-.43,2.48c-.37,2.08-1.07,3-2.45,3-1.2,0-1.66-.7-1.29-2.82l.43-2.48c.37-2.05,1.07-3,2.48-3Zm-7.26-11.28-7,1.1c-4.26.67-7.91,2.08-9,8.15l-1.26,7.11a9.48,9.48,0,0,0-.12,1.56,6.17,6.17,0,0,0,6.5,6.47c3.89,0,7.11-2.45,7.94-7.08l.49-2.7a8.35,8.35,0,0,0,.18-1.69c0-3.71-2.39-5.82-5.52-5.82a7,7,0,0,0-2.51.46,4.39,4.39,0,0,1,3.13-1.84l6.25-1,.86-4.69Zm-9,11.89c1,0,1.38.46,1.38,1.59a10.13,10.13,0,0,1-.12,1.26l-.34,1.87c-.37,2.08-1.07,3-2.48,3-1.07,0-1.44-.49-1.44-1.62a8.43,8.43,0,0,1,.09-1.2l.34-1.87c.37-2.05,1.13-3,2.57-3Zm-9.69,2a5.92,5.92,0,0,0-6-7.36c-4.41,0-7.48,2.7-8.25,7.17l-.58,3.37c-.83,4.84,2,7.36,5.09,7.36a5.81,5.81,0,0,0,3.13-.95l-.06.55h4.87l1.78-10.15Zm-6.62-2.57c.83,0,1.59.58,1.26,2.54l-.8,4.35a3.17,3.17,0,0,1-2.24,1.44c-.77,0-1.41-.31-1-2.54l.52-3.07c.34-2,1.38-2.73,2.3-2.73ZM359,324.59c.8-4.57-1.1-7.6-5.09-7.6a5,5,0,0,0-3.34,1.26l-.12-.86H346L341.88,341h5.36l1.13-6.44a7,7,0,0,0,2,.37c4.45,0,7.23-2.42,8.09-7.33l.52-3Zm-6.44-2.82c.74,0,1.44.61,1.1,2.64l-.52,3c-.4,2.18-1.35,2.73-2.3,2.73a4,4,0,0,1-1.59-.34l.89-5.18c.37-2,1.44-2.82,2.42-2.82Zm-7.79-11.28-7,1.1c-4.26.67-7.91,2.08-9,8.15l-1.26,7.11a9.48,9.48,0,0,0-.12,1.56,6.17,6.17,0,0,0,6.5,6.47c3.89,0,7.11-2.45,7.94-7.08l.49-2.7a8.33,8.33,0,0,0,.18-1.69c0-3.71-2.39-5.82-5.52-5.82a7,7,0,0,0-2.51.46,4.39,4.39,0,0,1,3.13-1.84l6.25-1,.86-4.69Zm-9,11.89c1,0,1.38.46,1.38,1.59a10.12,10.12,0,0,1-.12,1.26l-.34,1.87c-.37,2.08-1.07,3-2.48,3-1.07,0-1.44-.49-1.44-1.62a8.43,8.43,0,0,1,.09-1.2l.34-1.87c.37-2.05,1.13-3,2.57-3Zm-9.87,2.27c.83-4.72-2.05-7.66-5.95-7.66-4.81,0-7.66,2.88-8.46,7.48l-.49,2.79c-.8,4.72,2.08,7.63,6,7.63,4.78,0,7.6-2.85,8.4-7.45l.49-2.79Zm-6.62-2.88c1.2,0,1.63.7,1.26,2.85l-.43,2.48c-.37,2.08-1.07,3-2.45,3-1.2,0-1.65-.7-1.29-2.82l.43-2.48c.37-2.05,1.07-3,2.48-3Z"/><path d="M202.37,324.38c.89-5.15-1.7-7.43-4.84-7.43a5.52,5.52,0,0,0-3.27,1.08v-.68h-4.68l-3,17.19H192l2-11.31a3.29,3.29,0,0,1,2.28-1.48c.68,0,1.17.22.77,2.59l-1.79,10.2h5.42l1.76-10.17Zm10.35-2.62c.74,0,1.45.62,1.11,2.65l-.52,3c-.4,2.19-1.36,2.74-2.31,2.74a4,4,0,0,1-1.6-.34l.89-5.21c.37-2,1.45-2.83,2.43-2.83Zm6.47,2.83c.8-4.59-1.11-7.64-5.11-7.64a5,5,0,0,0-3.36,1.26l-.12-.86h-4.44L202,341.05h5.39l1.14-6.47a7,7,0,0,0,2,.37c4.47,0,7.27-2.43,8.13-7.36l.52-3Zm9.67-2.83c1.2,0,1.63.71,1.26,2.87l-.43,2.5c-.37,2.1-1.08,3-2.46,3-1.2,0-1.66-.71-1.29-2.83l.43-2.5c.37-2.06,1.08-3.05,2.5-3.05Zm6.66,2.9c.83-4.74-2.07-7.7-6-7.7-4.84,0-7.7,2.9-8.5,7.52l-.49,2.8c-.8,4.74,2.1,7.67,6,7.67,4.81,0,7.64-2.87,8.44-7.49l.49-2.8Zm15.5-6.72a16.19,16.19,0,0,0-5.21-1c-4.28,0-7.52,2.28-8.44,7.52l-.49,2.8c-.92,5.39,2.28,7.67,6.29,7.67a19,19,0,0,0,5.36-.92l-.46-4.62a17.15,17.15,0,0,1-4.22.74c-1.39,0-2-.37-1.6-2.68l.49-2.8c.43-2.34,1.26-2.9,2.74-2.9a12.58,12.58,0,0,1,3.91.77l1.63-4.59Zm22.34,6.29c.83-4.71-1.76-7.27-5-7.27a6,6,0,0,0-4.5,1.73,3.64,3.64,0,0,0-3.2-1.73,5.09,5.09,0,0,0-2.8,1v-.62h-4.68l-3,17.19h5.39l1.76-10c.37-2.13,1-2.77,1.85-2.77,1,0,1,1.14.68,3.11l-1.69,9.67h5.42l1.63-9.49c.43-2.5,1.17-3.3,2-3.3.62,0,1.11.37.74,2.59l-1.79,10.2h5.42l1.79-10.32Zm9.71-2.46c.83,0,1.6.59,1.26,2.56l-.8,4.37a3.19,3.19,0,0,1-2.25,1.45c-.77,0-1.42-.31-1-2.56l.52-3.08c.34-2,1.39-2.74,2.31-2.74Zm6.66,2.59a6,6,0,0,0-6-7.39c-4.44,0-7.52,2.71-8.29,7.21l-.59,3.39c-.83,4.87,2,7.39,5.11,7.39a5.84,5.84,0,0,0,3.14-1l-.06.55h4.9l1.79-10.2Zm10.07-2.59-.52,2.83h-1.42c-.74,0-1-.46-1-1,0-1.08.4-1.76,1.66-1.79Zm6.19-4.41h-6.81c-4,0-7.8,1.76-7.8,6.29a4.9,4.9,0,0,0,1.69,4.1l-4.37,6.81H295l3.27-5.76h.34l-1,5.76h5.42L306,317.36Z"/><polygon class="cls-1" points="307.45 195.96 511.65 195.96 513.3 192.73 308.06 192.73 307.45 195.96 307.45 195.96"/><path class="cls-4" d="M530,184.5a17.37,17.37,0,0,0-4.63-3.78,5.35,5.35,0,0,0-4.51.09,8.26,8.26,0,0,0-3.31,2.44c-.65.91-.69,1.77-.93,4.16s-.69,6.31-.88,8.8a12.4,12.4,0,0,0,.16,4.52,5.58,5.58,0,0,0,1.47,2.48,6,6,0,0,0,2.54,1.48,9.19,9.19,0,0,0,2.71.13,8.18,8.18,0,0,0,3.51-.66,19.55,19.55,0,0,0,4.65-3.1,7.08,7.08,0,0,0,2.23-3.54,19,19,0,0,0,.92-5.39,8.1,8.1,0,0,0-1.16-4.14,18.33,18.33,0,0,0-2.77-3.5Z"/><path class="cls-1" d="M401.8,79.11c.11-.07.32-.06,1.95,0l6.57.2a22.82,22.82,0,0,1,3.26.22,1.82,1.82,0,0,1,1.07.58,4.15,4.15,0,0,1,.81,1.21,7.89,7.89,0,0,1,.48,2,19.37,19.37,0,0,1,.23,3.33c0,1.37-.2,3-.53,7.92s-.8,13.07-1,17.15l-.24,4.08,1.14,0c1.14,0,3.42.07,9.82.25l22.16.66,5.25.16-.17,4.56c-.17,4.56-.52,13.68-.67,18.3s-.09,4.74-.73,4.84-2,.19-3,.4a4.76,4.76,0,0,0-2.39,1,3.4,3.4,0,0,0-.85,2c-.16.86-.3,2-5.65,2.4s-15.92.24-22.88.05-10.3-.37-12-.49-1.76-.18-1.84-1.91-.19-5.15-.28-10.87-.17-13.75-.14-19.93.17-10.51.2-13.46-.06-4.51-.18-8.32-.27-9.88-.35-13-.08-3.25,0-3.32Z"/><path class="cls-5" d="M409,80.23c.45-1,.63-1,3.59-.57s8.68,1.12,14.82,2.26a158.09,158.09,0,0,1,19.11,4.73,121.81,121.81,0,0,1,19,7.88,139.63,139.63,0,0,1,17,10.37c4.15,3,5.95,5.1,7.08,6.71s1.6,2.76,2.3,9.25,1.63,18.31.25,25.12-5.08,8.64-9.62,9.76-9.92,1.56-16.09,2.25-13.12,1.63-16.59,2.11-3.47.47-3.34.06a9.5,9.5,0,0,1,.83-2,4.25,4.25,0,0,1,2.09-1.8,17.94,17.94,0,0,1,3.34-.9c.76-.15.76-.15.87-.59s.34-1.33-2.31-4.53a58.87,58.87,0,0,0-14.64-12.43c-6.44-3.71-13.8-5.6-19.35-8.81s-9.32-7.73-10.68-13.25-.32-12,.15-17.33.36-9.33.66-12.35a19.21,19.21,0,0,1,1.45-6Z"/><path class="cls-1" d="M422.89,7.34l15.18-3.5,13,2,0,6.83,26.91,1.36,8.68-3.51L499.83,12l-.31,158.91,19.15-1.73.52,11-7.69,1.32.85,10.62,6.72,0,0,9.56,55.76,16.82-.1,2.31-6,1.25-65.35-15.43L458,216.18l52.55,20,.07,1.89-9.8,1.6L437.9,218.21l-1.69.17a35.22,35.22,0,0,1-2.41,3.74,7.74,7.74,0,0,1-3.36,2.81,35.77,35.77,0,0,1-5.94,1.41c-3.66.73-9.77,2-13,2.6s-3.58.61-4.07.55a6.16,6.16,0,0,1-2-.6,23.69,23.69,0,0,1-3-1.83,15.93,15.93,0,0,1-2.81-2.4,33,33,0,0,1-3-3.84,32.67,32.67,0,0,1-1.93-3.38c-.54-1-.09-2.79-1.33-3.46-13.57-7.33-47.93-20.22-55.75-23.88-11.88-5.57-13.83-28.51-2.45-34.07l.79-41.17c-1.79-.12-3.17-.21-3.92-.23s-.92,0-1,.14a1,1,0,0,0-.05.41c0,.12,0,.19-.13.22a1,1,0,0,1-.54-.05c-.14-.07-.16-.2-.17-.37a1.39,1.39,0,0,0-.07-.48c-.06-.11-.17-.12-.31-.15a1.13,1.13,0,0,1-.45-.16c-.11-.09-.14-.22.3-15.34S330.93,53.64,331.4,38s.48-16.75.5-17.92.05-2.38.08-3.25,0-1.41.31-1.42.8.49,1.26.67.83,0,2-.16,3.26-.43,7.59-.93l14.23-1.65,3.3-.38,7.06.33c7.06.33,21.18,1,29.43,1.58s10.61,1.08,11.87,1.34,1.41.29,1.79.55a1.69,1.69,0,0,0,1.78.35c.79-.38,1.77-1.6,2.29-.87s1.72-2.47,1.87,2.29c1.11,35.91,3.15,76.84,4.22,113.26l2.07,0,5.73.11,0-36.23a1,1,0,0,1,0-1.51v-.26a1.49,1.49,0,0,1,0-2.39L428.93,20l-6.22-1.11.17-11.55Zm33.76,99.41c4.55,1,13.78,3.07,18.24,4.08l.41-87.13-18.39-.87s-.22,59.23-.25,83.92Zm18.45,24.89-17.58-2.37-.17,20,17.37,2.24.38-19.85Z"/><path class="cls-4" d="M406.22,191.57c4.74.09,8.8,6.38,9.08,14s-3.34,13.8-8.07,13.71-8.8-6.38-9.08-14,3.34-13.8,8.07-13.71Z"/><path class="cls-1" d="M414.67,182.8a3.71,3.71,0,0,0,.32,1.32,8.55,8.55,0,0,1,.32,1.74c.09.78.17,1.88.27,2.63a3.77,3.77,0,0,0,.39,1.45,2,2,0,0,0,.84.77,10.36,10.36,0,0,0,1.26.52c.31.12.4.16.46.1s.11-.22.15-.79a23.85,23.85,0,0,0,0-2.94,21.48,21.48,0,0,0-.54-4c-.27-.92-.62-1-1.1-1.12a6.17,6.17,0,0,0-1.52-.18c-.46,0-.79.18-.84.51Z"/><path class="cls-1" d="M354.23,166.83s0,0,3.61-.1,10.75-.27,14.61-.33,4.43,0,5.31.19,2.06.54,11.23,2.76,26.34,6.32,35.7,8.55,10.92,2.61,11.73,2.84.87.32.91.46a3.38,3.38,0,0,1,.14.67c0,.34.1.84.11,1.11s0,.31-.07.34a1.91,1.91,0,0,1-.54.06c-.41,0-1.16.07-2.38.11l-6.09.17c-3.17.08-7.8.21-10.44.25a23.44,23.44,0,0,1-4.55-.19c-1.27-.19-3.17-.51-4.65-.81s-2.53-.57-5.48-1.32L393.13,179a13.45,13.45,0,0,0-2.66-.6,5.59,5.59,0,0,0-.8.28c-.56.21-1.55.6-2.11.79a2.31,2.31,0,0,1-.79.21c-.12,0-.25,0-5.55-1.43s-15.77-4.26-21.06-5.7S354.77,171,354.7,171s-.11-.19-.19-.87-.18-2-.23-2.6a5.08,5.08,0,0,1,0-.67Z"/><path class="cls-1" d="M436.47,209.62q-7.65-17.49-13.71-16.14a34.75,34.75,0,0,1,9.58,14.36,4,4,0,0,0,4.13,1.78Z"/><path class="cls-4" d="M415.83,183.86c.09.92.23,2.48.42,3.7a8.53,8.53,0,0,0,.76,2.65,2.76,2.76,0,0,0,1.55,1.23c.87.4,2.24.93,3.42,1.58a14.1,14.1,0,0,1,3.25,2.45,33.91,33.91,0,0,1,3.16,3.64,24.23,24.23,0,0,1,2.11,3.34c.6,1.12,1.18,2.35,1.65,3.39a19.91,19.91,0,0,0,1.21,2.46,2.92,2.92,0,0,0,1.2,1.08,3,3,0,0,0,1.28.31,2.5,2.5,0,0,0,1.24-.29,2.36,2.36,0,0,0,.95-1,7.63,7.63,0,0,0,.59-1.65,5.16,5.16,0,0,0,.12-1.55c0-.75-.08-2-.16-3.31s-.2-2.87-.25-3.66a3.55,3.55,0,0,1,0-.92c0-.05,0-.09,0-.47s-.07-1.12-.14-1.71a10.75,10.75,0,0,0-.19-1.26c-.06-.22-.1-.23-.35-.22l-1.08,0h-.94c-.2,0-.26,0-.29-.06s-.06-.1-.14-1.57-.25-4.38-.31-6a7,7,0,0,1,.05-2.13c.08-.29.2-.61.3-.87s.17-.49-2.2-.55-7.17,0-10.23,0-4.35,0-5.26-.06a4.43,4.43,0,0,0-1.63.06c-.23.12-.17.39-.08,1.3Z"/><path class="cls-4" d="M360,29.93a7.92,7.92,0,0,0-3.08-.36c-1.78,0-4.5.26-6.93.56s-4.58.66-5.8.94-1.51.48-1.75.76a3.5,3.5,0,0,0-.62,1.37c-.2.72-.42,1.78-.85,6.69s-1.06,13.66-1.24,18.94.07,7.07,1,8.23,2.41,1.68,5.27,2.12,7.08.81,9.79,1a25.83,25.83,0,0,0,4.55.2c.62-.1.66-.39.69-6.82s.05-19,0-25.53-.17-7-.28-7.4a1,1,0,0,0-.7-.76Z"/><path class="cls-4" d="M406,22.55c-3.49-.38-10.45-.92-14.19-1.18s-4.26-.27-4.59-.11-.48.48-1.41,3.28-2.64,8.08-3.79,10.82-1.72,2.94-2.38,3.06-1.37.14-2,.21a5.73,5.73,0,0,0-1.55.34,1,1,0,0,0-.64.65c-.1.29-.13.66,0,8.5s.46,23.15.67,31.29.33,9.13.69,9.72,1,.8,4.32,1,9.44.42,14.53.58,9.15.25,11.44.18,2.77-.3,3.19-.7a3.73,3.73,0,0,0,1-2.27c.22-1.28.31-3.28.16-8.63s-.53-14.08-.85-23.35-.57-19.09-.74-24.61-.23-6.73-.28-7.45-.08-1-3.57-1.34Z"/><path class="cls-5" d="M415.33,12c-1.08,0-49.67-3.64-49.67-3.64l-33.58,4.07L332,17.43,365,16l50.48,2.51-.17-6.6Z"/><path class="cls-1" d="M371.24,14.49c-.18-.22-1.4-1.82-1.4-1.82l.65-9.31,1.32-2.5L374,1l3.55.15s1.76,4.44,1.82,5.07a30.75,30.75,0,0,1-2.64,6.71c-.44.36-4.2,2.21-4.2,2.21l-1.25-.64Z"/><path class="cls-1" d="M383.77.22C381.92.15,378.29,0,376.17,0s-2.72.16-3.08.38-.46.49-.92,2.56-1.27,5.93-1.68,8.1a10.48,10.48,0,0,0-.37,3,1.32,1.32,0,0,0,.45.92,4.16,4.16,0,0,0,1.18.64,5.73,5.73,0,0,0,1.94.27c1.24.06,3.4.11,5.19.16s3.21.11,4,.09a2,2,0,0,0,1.17-.23,3,3,0,0,0,.56-.41c.15-.15.24-.32.76-2.44s1.47-6.21,1.94-8.33.46-2.28.41-2.46a1.66,1.66,0,0,0-.49-.72A11.39,11.39,0,0,0,386,.5c-.32-.23-.39-.21-2.24-.28Zm-.93,1.51c-1.5-.06-4.43-.18-6.14-.18s-2.2.13-2.49.31-.38.4-.75,2.07-1,4.79-1.36,6.55a8.37,8.37,0,0,0-.3,2.44,1.06,1.06,0,0,0,.36.74,3.38,3.38,0,0,0,1,.52,4.58,4.58,0,0,0,1.57.22c1,0,2.75.09,4.19.13s2.6.09,3.24.07a1.6,1.6,0,0,0,.95-.19,2.41,2.41,0,0,0,.45-.33c.12-.12.2-.26.62-2s1.19-5,1.57-6.73.37-1.84.33-2a1.32,1.32,0,0,0-.39-.59,9,9,0,0,0-1-.84c-.26-.19-.32-.17-1.81-.23Z"/><path class="cls-5" d="M382.84,1.73c-1.5-.06-4.43-.18-6.14-.18s-2.2.13-2.49.31-.38.4-.75,2.07-1,4.79-1.36,6.55a8.45,8.45,0,0,0-.3,2.44,1.06,1.06,0,0,0,.36.74,3.37,3.37,0,0,0,1,.52,4.63,4.63,0,0,0,1.57.22c1,0,2.75.09,4.19.13s2.6.09,3.24.07a1.6,1.6,0,0,0,.95-.19,2.41,2.41,0,0,0,.45-.33c.12-.12.2-.26.61-2s1.19-5,1.57-6.73.37-1.84.33-2a1.33,1.33,0,0,0-.39-.58,9.18,9.18,0,0,0-1-.84c-.26-.19-.32-.17-1.81-.22Z"/><path class="cls-5" d="M416.22,3.46a46.43,46.43,0,0,0-1.65,6.69c0,.48-1,5.77-1,6.11s1.07,3.38,1.07,3.38l1.31.64.46-.84,2.73-9.51.95-4.7-1.12-1-1.5-.83-1.28.06Z"/><path class="cls-1" d="M418.23,3l-3.1-.58-.82,2.37s-1.16,8.29-1.36,8.87-1,4.51-1,4.51l1,.53,1.7,1.55h1.6l-1.12-1.07-.48-.92.29-2.37,2.86-11.64,1.9,1.24L419.34,7l-3.84,12.6.74.7,3.54-11.05,1-4.07L418.23,3Z"/><polygon class="cls-1" points="416.22 3.46 414.93 3.01 411.13 2.65 410.4 4.35 408.8 11.38 408.46 15.84 412.68 17.54 416.22 3.46 416.22 3.46"/><polygon class="cls-1" points="410.46 15.51 412.3 15.51 412.3 21.02 410.46 21.02 410.46 15.51 410.46 15.51"/><polygon class="cls-1" points="375.5 15.56 379.3 15.56 379.3 20.29 375.5 20.29 375.5 15.56 375.5 15.56"/><polygon class="cls-4" points="432.68 20 433.9 20 433.9 131.95 432.68 131.95 432.68 20 432.68 20"/><polygon class="cls-4" points="487.8 21.4 489.02 21.4 489.02 133.41 487.8 133.41 487.8 21.4 487.8 21.4"/><path class="cls-4" d="M500.43,180.63l7.42,1.2c4.79.78,4.78.79,4.93.8a6.82,6.82,0,0,0,.83,0c.36,0,.77-.09,1-.11s.3,0,.34.08.07.18.1.18.05-.11.09-.22a2.79,2.79,0,0,1,.12-.28.63.63,0,0,0,.06-.25c0-.15,0-.43.09-1.61s.12-3.24.16-4.41a16.42,16.42,0,0,0,0-1.7,5.28,5.28,0,0,0-.11-.74c0-.19-.09-.29-.26-.33a3.39,3.39,0,0,0-.82,0l-1.08.08-.61,0a1,1,0,0,1-.2,0c-.06,0-.13,0-.09-.05a1,1,0,0,0,.27-.08c.08-.05.07-.16.08-.29s0-.29,0-.59a5.83,5.83,0,0,0,0-1c0-.25-.14-.3-.28-.35a44.64,44.64,0,0,0-4.5-.67l-8.61-1.14v1.54l1.05,9.86Z"/><path class="cls-4" d="M514.88,187.46h0A1.52,1.52,0,0,1,516.4,189v4a1.53,1.53,0,0,1-1.52,1.52h0a1.53,1.53,0,0,1-1.52-1.52v-4a1.53,1.53,0,0,1,1.52-1.52Z"/><path class="cls-1" d="M516.89,188.67q-.38-1.77-1.85-1.76,1.39,5.87-.83,7.68,1.45,1.14,2.6-.76l.09-5.16Z"/><path class="cls-1" d="M531.5,172.63c0,.73,0,2.17-.12,3.12a5,5,0,0,1-.34,1.74,1.64,1.64,0,0,1-.64.74,8.07,8.07,0,0,1-1.16.59,13.33,13.33,0,0,0-1.42.69,15.09,15.09,0,0,0-1.54,1.06c-.49.37-.92.73-1.41,1.17s-1.06,1-1.61,1.51-1.09,1.12-1.56,1.68a20.23,20.23,0,0,0-1.42,1.92c-.53.8-1.18,1.83-1.68,2.7a24,24,0,0,0-1.18,2.34c-.34.78-.68,1.63-1,2.32a7.63,7.63,0,0,1-.95,1.62,3.1,3.1,0,0,1-1,.82,2.21,2.21,0,0,1-.85.21,3,3,0,0,1-.86,0,3.35,3.35,0,0,1-.95-.36,2.58,2.58,0,0,1-.7-.58,4.32,4.32,0,0,1-.54-.79,3.23,3.23,0,0,1-.32-.91,14.11,14.11,0,0,1-.06-2.68c0-2,.13-5.48.2-7.24s.12-1.75.31-1.73a8.89,8.89,0,0,0,.9.07c.38,0,.8,0,1.09,0s.45,0,.59,0a2.17,2.17,0,0,0,.37,0,.44.44,0,0,0,.26-.15.91.91,0,0,0,.15-.32,5.47,5.47,0,0,0,.18-1.54c.05-1.13.08-3.15.1-4.29s0-1.4,0-1.63a3.89,3.89,0,0,0-.07-.67c0-.21-.11-.43-.14-.55s0-.17.19-.23a28,28,0,0,1,3.49-.36c2.86-.23,8.15-.61,10.84-.8a26.43,26.43,0,0,1,2.83-.16s0,0,0,.78Z"/><polygon class="cls-6" points="499.38 165.63 531.86 169.78 512.82 171.09 499.38 169.31 499.38 165.63 499.38 165.63"/><polygon class="cls-4" points="512.71 173.4 512.82 171.09 531.86 169.78 531.51 171.92 512.71 173.4 512.71 173.4"/><polygon class="cls-1" points="499.46 171.6 512.71 173.4 512.82 171.09 499.38 169.31 499.37 170.77 499.46 171.6 499.46 171.6"/><polygon class="cls-4" points="366.54 27.73 367.18 27.73 367.18 107.5 366.54 107.5 366.54 27.73 366.54 27.73"/><polygon class="cls-4" points="411.73 28.22 412.36 28.19 416.74 95.32 416.11 95.35 411.73 28.22 411.73 28.22"/><path class="cls-1" d="M522.84,177.31c7.28-.74,13.81,4.82,14.58,12.43s-4.49,14.38-11.77,15.12a12.75,12.75,0,0,1-3.18-.07c4.49-1.92,7.41-7.21,6.81-13.08-.72-7-6.17-12.19-12.18-11.57a9.48,9.48,0,0,0-1.33.23,12.78,12.78,0,0,1,7.07-3.06Z"/><path class="cls-1" d="M521.12,186.72c2.37,0,4.3,2.4,4.3,5.35s-1.92,5.35-4.3,5.35-4.3-2.4-4.3-5.35,1.92-5.35,4.3-5.35Z"/><polygon class="cls-4" points="457.59 213.15 458.01 214.61 503.46 205.08 503.44 203.53 457.59 213.15 457.59 213.15"/><polygon class="cls-4" points="444.27 191.94 444.75 193.41 496.73 186.14 496.71 184.59 444.27 191.94 444.27 191.94"/><polygon class="cls-4" points="506.07 205.05 568.66 220.09 568.66 221.01 506.07 205.98 506.07 205.05 506.07 205.05"/><polygon class="cls-4" points="440.95 217.48 500.88 238.17 500.88 239.09 440.95 218.41 440.95 217.48 440.95 217.48"/><polygon class="cls-5" points="443.47 162.38 446.28 162.74 446.49 215.66 443.78 215.12 443.11 212.88 443.47 162.38 443.47 162.38"/><polygon class="cls-5" points="443.47 162.38 450.33 161.84 455.98 162.02 446.28 162.74 443.47 162.38 443.47 162.38"/><polygon class="cls-1" points="446.49 162.73 455.59 162.05 456.36 213.93 446.49 215.66 446.28 162.74 446.49 162.73 446.49 162.73"/><polygon class="cls-5" points="502.69 151.36 505.5 151.72 505.7 204.64 503 204.1 502.33 201.86 502.69 151.36 502.69 151.36"/><polygon class="cls-5" points="502.69 151.36 509.55 150.81 515.19 151 505.5 151.72 502.69 151.36 502.69 151.36"/><polygon class="cls-1" points="505.71 151.71 514.81 151.03 515.57 202.9 505.7 204.64 505.5 151.72 505.71 151.71 505.71 151.71"/><polygon class="cls-4" points="454.77 163.02 454.86 213.58 455.25 213.51 455.25 162.93 454.77 163.02 454.77 163.02"/><polygon class="cls-4" points="513.72 152.09 514.04 202.65 514.43 202.58 514.19 152 513.72 152.09 513.72 152.09"/><path class="cls-1" d="M388.49,133.36a4,4,0,0,1,.41,1,12.46,12.46,0,0,1,.24,1.43c.1.63.25,1.5.46,2.45a17.42,17.42,0,0,0,.91,3,16.3,16.3,0,0,0,1.82,3.18,8.61,8.61,0,0,0,2.72,2.65,5.11,5.11,0,0,0,3.55.44,7.11,7.11,0,0,0,3.21-1.85,14.75,14.75,0,0,0,2.46-3.27,45.53,45.53,0,0,0,2.52-5.09c1-2.24,2.13-5.16,3.22-8.29s2.11-6.46,3.1-9.86,1.94-6.89,2.69-9.54,1.31-4.47,1.88-6.07,1.16-3,1.52-3.79.5-1,.83-1a6.52,6.52,0,0,1,1.41.45,14.46,14.46,0,0,0,1.64.46,8.44,8.44,0,0,1,1,.24.68.68,0,0,1,.42.45,4.12,4.12,0,0,1,.22.88,1.83,1.83,0,0,1-.05.75,4.21,4.21,0,0,1-.47,1.12c-.28.48-.71,1.06-1.2,1.89a23,23,0,0,0-1.58,3.18c-.53,1.3-1,2.84-1.51,4.44s-.93,3.27-1.39,4.9-.93,3.25-1.56,5.44-1.43,5-2.19,7.36-1.49,4.43-2.19,6.23-1.38,3.38-2.12,4.86a32.17,32.17,0,0,1-2.54,4.24,23.07,23.07,0,0,1-3.42,3.89,21.28,21.28,0,0,1-3.9,2.7,9.7,9.7,0,0,1-2.91,1.11,7.41,7.41,0,0,1-2.75,0,10.06,10.06,0,0,1-2.88-1,11.34,11.34,0,0,1-2.32-1.7,13.22,13.22,0,0,1-1.64-1.83,12.23,12.23,0,0,1-1.15-1.91c-.35-.71-.7-1.53-1.06-2.48s-.74-2-1-2.89-.46-1.57-.63-2.27-.33-1.41-.41-1.84-.1-.56,0-.64a2,2,0,0,1,.9-.1c.54,0,1.38,0,1.92,0a4.07,4.07,0,0,0,.93-.1c.15,0,.2-.07.24-.16a1.15,1.15,0,0,1,.13-.29.61.61,0,0,1,.25-.13c.06,0,.08-.05.1-.37s0-.94,0-1.36,0-.65,0-.8,0-.24.13-.09Z"/><path class="cls-4" d="M388.43,138.51a44.34,44.34,0,0,0,1.7,4.29,13.77,13.77,0,0,0,2.62,3.64,6.08,6.08,0,0,0,2.81,1.7,6.76,6.76,0,0,0,3.59-.08,8.68,8.68,0,0,0,3.65-2.26,18.14,18.14,0,0,0,3.27-5.07c1.19-2.45,2.59-5.86,4-9.64s2.73-7.92,3.92-11.86,2.21-7.68,3.11-10.76,1.69-5.47,2.18-6.84a5.84,5.84,0,0,1,.83-1.88c.16-.17.31-.17.38-.13s.06.12-.13.61-.58,1.39-1,2.69-1,3-1.56,5-1.19,4.25-1.72,6.19-1,3.54-1.64,5.61-1.46,4.6-2.18,6.73-1.32,3.86-2.06,5.81-1.6,4.1-2.36,5.87a40.61,40.61,0,0,1-2.15,4.44,22.09,22.09,0,0,1-2.43,3.47,8.08,8.08,0,0,1-2.29,1.85,7.78,7.78,0,0,1-2.47.82,8.21,8.21,0,0,1-2.89,0,5.93,5.93,0,0,1-2.57-1.24,11.77,11.77,0,0,1-2.11-2.4,16.14,16.14,0,0,1-1.78-3.18,29.28,29.28,0,0,1-1.12-3.5c-.2-.78-.2-.87-.13-.87s.23.07.6,1Z"/><path class="cls-1" d="M420.43,98.6a17.12,17.12,0,0,1,1.11-2.4,10.76,10.76,0,0,1,1.3-2.05,9.13,9.13,0,0,1,1.72-1.55,4.18,4.18,0,0,1,1.26-.6,3,3,0,0,1,.64-.13c.08,0,0,0,0,.14a2.44,2.44,0,0,0-.09.48,1.74,1.74,0,0,0,0,.58,1.26,1.26,0,0,0,.24.49.74.74,0,0,0,.23.21l.2.09c.06,0,.1.05-.06.11s-.52.16-.82.28a2.19,2.19,0,0,0-.69.43,2.16,2.16,0,0,0-.35.45c-.07.11-.1.16.13,0s.71-.4,1.07-.56a1.8,1.8,0,0,1,.76-.19.7.7,0,0,1,.43.08c.07.06.06.18,0,.3a.75.75,0,0,0,0,.38.61.61,0,0,0,.27.27.65.65,0,0,0,.31.07h.21s-.06,0-.22.15a9.28,9.28,0,0,0-.76.58c-.35.29-.8.7-1.2,1.1a7.55,7.55,0,0,0-1,1.27c-.29.46-.54,1-.84,1.45a1.9,1.9,0,0,1-1,.9c-.35.05-.68-.23-1-.53s-.56-.6-.81-.81a2.31,2.31,0,0,0-.74-.4c-.23-.08-.44-.12-.28-.66Z"/><path class="cls-5" d="M427.46,91.43h1.25a1.32,1.32,0,0,1,.41.07c-.48,0-.87.57-.87,1.26s.4,1.26.88,1.26h.07a1.33,1.33,0,0,1-.49.09h-1.25a1.34,1.34,0,0,1-1.34-1.34h0a1.34,1.34,0,0,1,1.34-1.34Zm2.49.85a1.3,1.3,0,0,1,.09.49h0a1.32,1.32,0,0,1-.13.57,1.69,1.69,0,0,0,.1-.58,1.73,1.73,0,0,0-.07-.48Z"/><path class="cls-5" d="M428,94.1h.81a.85.85,0,0,1,.27,0c-.31,0-.57.37-.57.82s.26.82.58.82h0a.85.85,0,0,1-.32.06H428a.87.87,0,0,1-.87-.87h0a.87.87,0,0,1,.87-.87Zm1.62.55a.86.86,0,0,1,.06.32h0a.87.87,0,0,1-.08.37,1.1,1.1,0,0,0,.07-.38,1.14,1.14,0,0,0,0-.31Z"/><polygon class="cls-4" points="354.06 163.79 380.5 162.41 437.08 175.5 437.1 176.75 380.5 163.34 354.03 164.77 354.06 163.79 354.06 163.79"/><path class="cls-4" d="M354.3,166.86l-.07,0-.11,3.87.68.21.14.11a8.74,8.74,0,0,0,2.32.86c.94.26,2.26.6,4.21,1.12h0l4.22,1.15c4.46,1.24,10.89,3.11,14.73,4.14a40.05,40.05,0,0,0,5.78,1.28,2,2,0,0,0,1.35-.17c.53-.22,1.45-.64,2-.84a1.6,1.6,0,0,1,1-.13c.31.05.75.14,3,.75s6.33,1.74,9.92,2.57,6.7,1.39,8.62,1.7a23.47,23.47,0,0,0,4,.41c1.36,0,3.34,0,6.48-.06s7.46-.15,10.09-.23a37.89,37.89,0,0,0,4.07-.23c.5-.08.54-.19.59-.34a2.23,2.23,0,0,0,.1-.62,6.83,6.83,0,0,0-.06-.8,2.89,2.89,0,0,0-.09-.59c0-.13-.13-.17-.29-.2a3.65,3.65,0,0,0-1,0c-.61.07-1.59.22-4.06.35s-6.44.24-9.45.29-5.09.06-6.67,0a32.82,32.82,0,0,1-4-.33c-1.34-.19-2.91-.48-7.13-1.49s-11.08-2.75-19.93-5l-25.08-6.42c-4.29-1.1-5.2-1.33-5.39-1.37Z"/><path class="cls-5" d="M433.55,138.14l-2.26,0a16.19,16.19,0,0,0-1.7.1,2.32,2.32,0,0,0-.86.27,1.89,1.89,0,0,0-.64.57,3.7,3.7,0,0,0-.5,1c-.1.31-.09.54,0,4.33s.34,11.15.45,14.84.11,3.73.17,3.76a.84.84,0,0,0,.3.08,2.71,2.71,0,0,0,.47,0,1.52,1.52,0,0,0,.38-.07c.08,0,.1-.07.11-.11s0-.07-.08-3.62-.27-10.61-.34-14.31a25.28,25.28,0,0,1,0-4.3,2,2,0,0,1,.3-.68.71.71,0,0,1,.45-.3,5.87,5.87,0,0,1,1.33-.17c.72,0,1.8-.05,2.35-.07s.58,0,.59-.06a1.26,1.26,0,0,0,0-.28c0-.18,0-.47,0-.67a1.23,1.23,0,0,0,0-.34s-.07,0-.59,0Z"/><path class="cls-6" d="M427.9,162.55h2v.63h1v1.64h-1V165h-1a1,1,0,0,1-1-1v-1.49Z"/><path class="cls-1" d="M431.19,162.83a3.35,3.35,0,0,1-.26.35v1.64l1,0,0-1.36.14-.59-.83-.08Z"/><path class="cls-4" d="M433.26,138.44c-.52,0-1.54,0-2.24,0a9.39,9.39,0,0,0-1.38.13,2.34,2.34,0,0,0-.74.26,1.46,1.46,0,0,0-.49.48,4.06,4.06,0,0,0-.45.89c-.12.34-.19.71-.13,4.36s.26,10.59.37,14.08.11,3.51.13,3.51,0,0,.06,0,0,0,0-.19,0-.5-.07-3.88-.22-9.83-.29-13.23a30.33,30.33,0,0,1,0-4.1,3.09,3.09,0,0,1,.3-.92,1.91,1.91,0,0,1,.57-.68,2.23,2.23,0,0,1,.92-.35,13.42,13.42,0,0,1,1.56-.16c.64,0,1.38-.07,1.81-.08a2.14,2.14,0,0,0,.56,0s0-.08-.51-.1Z"/><path class="cls-4" d="M428,162.69q-.12,2,1.35,2.22-1.63.37-1.35-2.22Z"/><polygon class="cls-4" points="429.98 163.24 430.82 163.24 430.82 163.28 429.98 163.28 429.98 163.24 429.98 163.24"/><polygon class="cls-1" points="350.61 27.21 351.25 27.21 351.25 106.98 350.61 106.98 350.61 27.21 350.61 27.21"/></svg>