<svg id="Layer_1" data-name="Layer 1" xmlns="http://www.w3.org/2000/svg" viewBox="0 0 227.3 229.36"><title>2</title><path d="M28,218.09a9.5,9.5,0,1,1,9.41-9.5A9.47,9.47,0,0,1,28,218.09Zm0-15a5.53,5.53,0,1,0,5.48,5.53A5.51,5.51,0,0,0,28,203.06Z"/><path d="M124.82,214.33a13.25,13.25,0,1,1,13.13-13.25A13.21,13.21,0,0,1,124.82,214.33Zm0-22.54a9.29,9.29,0,1,0,9.2,9.29A9.25,9.25,0,0,0,124.82,191.79Z"/><path d="M124.82,229.36a27.94,27.94,0,0,1-26-17.68l-.45-1.11H48.54l-.25,1.48a20.52,20.52,0,0,1-40.54,0l-.25-1.48H0V165.29A9.56,9.56,0,0,1,1,161l4.6-9.29A9.36,9.36,0,0,1,14,146.5h8.32V92.14a9.47,9.47,0,0,1,9.41-9.5H104l26.21,90.69,1,.23,2.83.74V94.12h-7.45v-4h26.27V206.61h11V0h63.5V210.58H151.22l-.45,1.11A27.94,27.94,0,0,1,124.82,229.36Zm0-52.59a24.31,24.31,0,1,0,24.09,24.31A24.23,24.23,0,0,0,124.82,176.77ZM28,191.79a16.8,16.8,0,1,0,16.65,16.8A16.74,16.74,0,0,0,28,191.79Zm139.71,14.81h55.63V158H205v22.54H186.14V158h-18.4ZM28,187.82a20.56,20.56,0,0,1,20.27,17.31l.25,1.48H97.28l-.25-2a28.83,28.83,0,0,1-.24-3.54,27.93,27.93,0,0,1,.25-3.53l.25-2H83.21l-46-34.8V86.61H31.75a5.51,5.51,0,0,0-5.48,5.53v58.33H14a5.45,5.45,0,0,0-4.9,3l-4.6,9.29a5.67,5.67,0,0,0-.58,2.48V169H41.16v4H33.71v7.51H29.78V173h-11v7.51H14.89V173h-11v33.6H7.51l.25-1.48A20.57,20.57,0,0,1,28,187.82Zm56.5,3.76H98.41l.44-1.11a28.52,28.52,0,0,1,7.49-10.61l3.49-3.1H64.95Zm53.43-15.47.87.51a28.29,28.29,0,0,1,7,5.82l3.07,3.52V94.12h-11Zm52.12.44h11V158h-11ZM97.54,133.74l24.64,39.06h3.74L101,86.61H41.16V154H88.4l8.6,8.68V172.8h20.51L94.69,136.61l-4.47,4.51-2.78-2.81L99.85,125.8l2.78,2.81ZM59.7,172.8H93.07v-8.46L86.77,158H40.13Zm108-18.78h55.63V105.39H205v22.54H186.14V105.39h-18.4ZM190.07,124h11V105.39h-11Zm-22.34-22.54h55.63V52.8H205V75.34H186.14V52.8h-18.4Zm22.34-30.05h11V52.8h-11ZM167.73,48.83h55.63V4H205V26.51H186.14V4h-18.4Zm22.34-26.3h11V4h-11Z"/></svg>