<svg id="Layer_1" data-name="Layer 1" xmlns="http://www.w3.org/2000/svg" viewBox="0 0 227.3 229.36"><title>1</title><path d="M10.89,229.36A11,11,0,0,1,0,218.36V11A11,11,0,0,1,10.89,0h181a11,11,0,0,1,10.89,11V35.31a1.8,1.8,0,1,1-3.6,0V11a7.33,7.33,0,0,0-7.29-7.36h-181A7.33,7.33,0,0,0,3.6,11V218.36a7.33,7.33,0,0,0,7.29,7.36h181a7.33,7.33,0,0,0,7.29-7.36V205.52a1.8,1.8,0,1,1,3.6,0v12.85a11,11,0,0,1-10.89,11Z"/><path d="M23.62,121.54a1.81,1.81,0,0,1-1.8-1.82V23.84A1.81,1.81,0,0,1,23.62,22h155.5a1.81,1.81,0,0,1,1.8,1.82V35.77a1.8,1.8,0,1,1-3.6,0V25.66H25.42v94.07A1.81,1.81,0,0,1,23.62,121.54Z"/><path d="M23.62,138.52a1.81,1.81,0,0,1-1.27-.53,1.83,1.83,0,0,1,0-2.57,1.78,1.78,0,0,1,2.55,0,1.82,1.82,0,0,1-1.28,3.1Z"/><path d="M23.62,207.34a1.81,1.81,0,0,1-1.8-1.82V154.36a1.8,1.8,0,1,1,3.6,0V203.7h151.9v-8.28a1.8,1.8,0,1,1,3.6,0v10.09a1.81,1.81,0,0,1-1.8,1.82Z"/><path d="M122.74,174.82a6.22,6.22,0,0,1-4.45-1.86l-7.53-7.59L105.22,171a1.79,1.79,0,0,1-2.55,0,1.83,1.83,0,0,1,0-2.57l3.63-3.67a6.27,6.27,0,0,1,8.91,0l7.53,7.59,10.93-11a1.79,1.79,0,0,1,2.55,0,1.83,1.83,0,0,1,0,2.57l-9,9.1A6.23,6.23,0,0,1,122.74,174.82Z"/><path d="M196.4,184.72a1.79,1.79,0,0,1-1.27-.53l-13.28-13.33-13.28,13.33a1.78,1.78,0,0,1-2,.39,1.81,1.81,0,0,1-1.11-1.68V139l-.73-.79a10.62,10.62,0,0,1-1.61-2.31,6.83,6.83,0,0,0-6.1-3.75l-.82,0a10.5,10.5,0,0,1-7.41-3.1,10.65,10.65,0,0,1-3.06-8,7,7,0,0,0-.45-2.78l-.67-1.79H54.44a1.82,1.82,0,0,1,0-3.64h84.19l-1.49-3.79a10.6,10.6,0,0,1,.92-9.59,6.9,6.9,0,0,0,.6-1.22l1.47-3.78H54.44a1.82,1.82,0,0,1,0-3.64h82.48l-.42-3.14a10.58,10.58,0,0,1,5.57-10.82,7,7,0,0,0,3.71-6.49,10.64,10.64,0,0,1,3.06-8,10.5,10.5,0,0,1,7.41-3.1l.77,0a6.86,6.86,0,0,0,6.15-3.75,10.53,10.53,0,0,1,6.6-5.36,10.42,10.42,0,0,1,8.37,1.31,6.84,6.84,0,0,0,7.43,0,10.42,10.42,0,0,1,8.37-1.31,10.52,10.52,0,0,1,6.6,5.36,6.84,6.84,0,0,0,6.1,3.75l.82,0a10.5,10.5,0,0,1,7.41,3.1,10.65,10.65,0,0,1,3.06,8,7,7,0,0,0,3.71,6.49,10.63,10.63,0,0,1,4,15.11,7,7,0,0,0,0,7.49,10.68,10.68,0,0,1,1.3,8.44,10.57,10.57,0,0,1-5.31,6.66,7,7,0,0,0-3.71,6.49,10.65,10.65,0,0,1-3.06,8,10.5,10.5,0,0,1-7.41,3.1l-.78,0a6.86,6.86,0,0,0-6.14,3.75,10.49,10.49,0,0,1-1.6,2.3l-.73.8V182.9a1.81,1.81,0,0,1-1.11,1.68A1.77,1.77,0,0,1,196.4,184.72Zm-14.55-18.24a1.78,1.78,0,0,1,1.27.53l11.48,11.52v-37.1l-3.37.16a10.41,10.41,0,0,1-5.67-1.67,6.84,6.84,0,0,0-7.43,0,10.41,10.41,0,0,1-5.66,1.67H172l-2.87-.14v37.09L180.58,167A1.78,1.78,0,0,1,181.85,166.48Zm0-31.29a10.39,10.39,0,0,1,5.66,1.67,6.81,6.81,0,0,0,3.7,1.1,6.87,6.87,0,0,0,6.12-3.76,10.44,10.44,0,0,1,9.32-5.72l.78,0a6.82,6.82,0,0,0,4.89-2,6.91,6.91,0,0,0,2-5.24,10.62,10.62,0,0,1,5.66-9.89,7,7,0,0,0,2.63-9.91,10.69,10.69,0,0,1,0-11.42A7,7,0,0,0,220,80.11a10.63,10.63,0,0,1-5.66-9.89,6.89,6.89,0,0,0-2-5.23,6.8,6.8,0,0,0-4.86-2l-.81,0a10.57,10.57,0,0,1-9.31-5.72,6.83,6.83,0,0,0-9.82-2.66,10.43,10.43,0,0,1-11.31,0,6.8,6.8,0,0,0-3.7-1.1,6.89,6.89,0,0,0-1.79.24,6.82,6.82,0,0,0-4.33,3.52A10.44,10.44,0,0,1,157,63l-.78,0a6.81,6.81,0,0,0-4.89,2,6.89,6.89,0,0,0-2,5.23,10.63,10.63,0,0,1-5.66,9.89A7,7,0,0,0,141.09,90a10.69,10.69,0,0,1,0,11.42,7,7,0,0,0,2.63,9.91,10.39,10.39,0,0,1,2.63,2l.16.17a10.73,10.73,0,0,1,2.87,7.75,6.9,6.9,0,0,0,2,5.23,6.79,6.79,0,0,0,4.86,2l.81,0a10.44,10.44,0,0,1,9.31,5.72,6.84,6.84,0,0,0,9.82,2.66A10.4,10.4,0,0,1,181.85,135.19Z"/><path d="M181.95,106.78a1.78,1.78,0,0,1-1.27-.53l-9.22-9.3a1.83,1.83,0,0,1,0-2.57,1.79,1.79,0,0,1,2.55,0l7.95,8L199,85.2a1.79,1.79,0,0,1,2.55,0,1.83,1.83,0,0,1,0,2.57l-18.31,18.47A1.78,1.78,0,0,1,181.95,106.78Z"/><path d="M49.54,57.77a1.81,1.81,0,0,1-1.27-.53,1.83,1.83,0,0,1,0-2.57,1.79,1.79,0,0,1,2.55,0,1.83,1.83,0,0,1,0,2.57A1.81,1.81,0,0,1,49.54,57.77Z"/><path d="M66.51,57.77a1.82,1.82,0,0,1,0-3.64H88.64a1.82,1.82,0,0,1,0,3.64Z"/><path d="M83,138.52a1.82,1.82,0,0,1,0-3.64h52a1.82,1.82,0,0,1,0,3.64Z"/></svg>