<svg id="Layer_1" data-name="Layer 1" xmlns="http://www.w3.org/2000/svg" viewBox="0 0 227.3 229.36"><title>3</title><path d="M52.33,94.08a39.43,39.43,0,0,1-37.4-37.74h3.94A35.47,35.47,0,0,0,52.33,90.11Z"/><path d="M54.08,79.1a24.52,24.52,0,1,1,24.3-24.52A24.44,24.44,0,0,1,54.08,79.1Zm0-45.08A20.56,20.56,0,1,0,74.45,54.58,20.49,20.49,0,0,0,54.08,34Z"/><path d="M54.08,64.07a9.5,9.5,0,1,1,9.41-9.5A9.47,9.47,0,0,1,54.08,64.07Zm0-15a5.53,5.53,0,1,0,5.48,5.53A5.51,5.51,0,0,0,54.08,49Z"/><path d="M149.48,229.36l-3.41-9.82-.85-.26a57.83,57.83,0,0,1-10.38-4.33l-.79-.42L124.78,219,122,216.21l-.09-.07a89.3,89.3,0,0,1-7.54-7c-2.41-2.45-4.92-5.13-6.55-7L85.41,176.35,76,179.53l4.65,9.38L68.08,201.56l-9.3-4.69-3.28,10H37.78l-3.29-10-9.3,4.69L12.66,188.91l4.65-9.38-9.86-3.32V158.32L17.31,155l-4.65-9.38L25.19,133l9.3,4.69,3.29-10h5.46L13.88,93.86A56.85,56.85,0,0,1,0,58.37h0l0-1.83c0-.31,0-.61-.05-.91s0-.7,0-1.05C0,24.48,24.26,0,54.08,0c.35,0,.7,0,1,0L56,.1l1.81.06V0A55.79,55.79,0,0,1,93,14l33.55,29.61V38.12l9.87-3.32-4.65-9.38,12.53-12.65,9.3,4.69,3.29-10h17.72l3.29,10,9.3-4.69,12.53,12.65-4.65,9.38L205,38.12V56l-9.86,3.32,4.65,9.38L187.21,81.36l-9.3-4.69-3.14,9.49,25.65,22.63c2,1.75,4.91,4.56,7.46,7.16A86.16,86.16,0,0,1,214.2,123l.07.1,2.8,2.82-4.49,9.36.42.8a58.6,58.6,0,0,1,4.29,10.47l.26.86,9.74,3.43v25.36l-9.74,3.43-.26.86A59,59,0,0,1,213,191l-.42.79,4.48,9.36L199.3,219,190,214.51l-.79.42a57.64,57.64,0,0,1-10.38,4.33l-.85.26-3.4,9.83Zm2.79-4h19.55l3.16-9.15,1-.27a53.67,53.67,0,0,0,13-5.41l.91-.53,8.63,4.21,13.82-13.95-4.17-8.71.52-.91A54.31,54.31,0,0,0,214,177.58l.27-1,9.06-3.19V153.65l-9.06-3.19-.27-1a54.61,54.61,0,0,0-5.36-13.09l-.52-.91,4.17-8.71-13.82-13.95L189.86,117l-.9-.53a53.28,53.28,0,0,0-13-5.41l-1-.27-3.16-9.15H152.27l-3.16,9.15-1,.27a53.57,53.57,0,0,0-13,5.41l-.91.53-8.63-4.21-13.82,13.95,4.17,8.71-.52.91a54.35,54.35,0,0,0-5.36,13.1l-.27,1-9.06,3.19v19.72l9.06,3.19.27,1a54.7,54.7,0,0,0,5.36,13.09l.53.91-4.17,8.71,13.82,13.95,8.63-4.21.9.53a53.33,53.33,0,0,0,13,5.41l1,.27ZM40.61,202.85H52.67l3-9,.87-.33c.51-.2,1-.4,1.5-.62l.86-.39,8.44,4.26,8.52-8.6-4.22-8.51.38-.86c.22-.51.42-1,.61-1.52l.33-.88,9.67-3.25L46.68,131.69H40.61l-3,9-.87.33c-.52.2-1,.4-1.5.62l-.85.39L26,137.81l-8.52,8.6,4.22,8.51-.38.86c-.22.51-.42,1-.61,1.52l-.33.88-9,3v12.17l9,3,.33.88c.2.52.39,1,.61,1.51l.38.86-4.22,8.51,8.52,8.6,8.43-4.26.85.39c.5.22,1,.42,1.5.62l.87.33Zm-9.54-95.19,77.75,89.66,2.67-5.58-.42-.79a58.64,58.64,0,0,1-4.29-10.47l-.26-.86-9.74-3.43V150.84l9.74-3.43.26-.86a59,59,0,0,1,4.29-10.47l.42-.79L107,125.92,124.79,108l9.28,4.53.79-.42a57.48,57.48,0,0,1,10.38-4.33l.85-.26,3.4-9.83h25.13l3.4,9.83.85.26a57.82,57.82,0,0,1,10.38,4.33l.79.42,5.57-2.72L106.69,31.34l-2.77,2a54.51,54.51,0,0,1,4.25,21.21c0,30.09-24.26,54.58-54.08,54.58a53.18,53.18,0,0,1-21-4.29ZM54.08,4C26.43,4,3.93,26.67,3.93,54.58s22.5,50.61,50.15,50.61,50.15-22.7,50.15-50.61S81.74,4,54.08,4ZM130.5,41v6.1l41.07,36.24,3.21-9.72.87-.33c.51-.2,1-.4,1.5-.62l.86-.39,8.44,4.26,8.52-8.6-4.22-8.51.38-.86c.22-.51.42-1,.61-1.52l.33-.88,9-3V41l-9-3-.33-.88c-.2-.52-.39-1-.61-1.51l-.38-.87L195,26.2l-8.52-8.6L178,21.86l-.85-.38c-.5-.22-1-.42-1.5-.62l-.87-.33-3-9H159.74l-3,9-.87.33c-.52.2-1,.4-1.5.62l-.85.39-8.44-4.26-8.53,8.6,4.22,8.51-.38.86c-.22.51-.42,1-.61,1.51l-.33.88Z"/><path d="M162,199.31a35.79,35.79,0,1,1,35.47-35.79A35.67,35.67,0,0,1,162,199.31Zm0-67.62a31.83,31.83,0,1,0,31.54,31.82A31.72,31.72,0,0,0,162,131.69Z"/><path d="M162,184.28a20.77,20.77,0,1,1,20.58-20.77A20.7,20.7,0,0,1,162,184.28Zm0-37.57a16.8,16.8,0,1,0,16.65,16.8A16.74,16.74,0,0,0,162,146.71Z"/><path d="M165.77,64.07a17,17,0,1,1,16.86-17A17,17,0,0,1,165.77,64.07Zm0-30.05a13,13,0,1,0,12.92,13A13,13,0,0,0,165.77,34Z"/><path d="M46.64,184.28a17,17,0,1,1,16.86-17A17,17,0,0,1,46.64,184.28Zm0-30.05a13,13,0,1,0,12.93,13A13,13,0,0,0,46.64,154.23Z"/></svg>