<svg id="Layer_1" data-name="Layer 1" xmlns="http://www.w3.org/2000/svg" viewBox="0 0 159.52 229.36"><title>4</title><path d="M17.68,175A17.7,17.7,0,0,1,0,157.36V17.68A17.7,17.7,0,0,1,17.68,0h77.6A17.7,17.7,0,0,1,113,17.68v110.8h-4.33V17.68A13.37,13.37,0,0,0,95.28,4.33H17.68A13.37,13.37,0,0,0,4.33,17.68V157.36a13.37,13.37,0,0,0,13.36,13.36H85.8V175Z"/><path d="M96.72,229.36A42.45,42.45,0,0,1,54.32,187V174.59h4.33V187A38.11,38.11,0,0,0,96.72,225h58.48V128.3a36.74,36.74,0,0,0-8-22.9l-37-46.22,3.38-2.71,37,46.23a41.12,41.12,0,0,1,9,25.6v98.89a2.17,2.17,0,0,1-2.16,2.16Z"/><path d="M116.2,209.19A50.21,50.21,0,0,1,85.36,163V150.39L51.53,110.45a16.21,16.21,0,0,1,.93-22l.39-.38a16,16,0,0,1,11-4.37h.56a16.14,16.14,0,0,1,11.36,5.09l51,54.16-3.15,3-51-54.15a11.83,11.83,0,0,0-8.32-3.73h0a12.22,12.22,0,0,0-8.52,3.25,12,12,0,0,0-.91,16.34L89.17,148.2a2.17,2.17,0,0,1,.51,1.4V163a45.86,45.86,0,0,0,28,42.12Z"/><rect x="85.36" y="7.76" width="4.33" height="93.56"/><rect x="65.96" y="128.03" width="4.33" height="43.13"/><rect x="65.96" y="3.88" width="4.33" height="81.92"/><rect x="19.4" y="19.4" width="4.33" height="47.01"/><rect x="38.8" y="19.4" width="4.33" height="27.61"/><path d="M21.56,155.64a2.17,2.17,0,0,1-2.16-2.16V130.2A2.17,2.17,0,0,1,21.56,128H44.84A2.17,2.17,0,0,1,47,130.2v23.28a2.17,2.17,0,0,1-2.16,2.16Zm2.16-4.33h19v-19h-19Z"/></svg>